<mxfile host="app.diagrams.net" modified="2021-03-30T12:51:47.291Z" agent="5.0 (Windows NT 10.0; Win64; x64) AppleWebKit/537.36 (KHTML, like Gecko) Chrome/88.0.4324.182 YaBrowser/21.2.4.165 Yowser/2.5 Safari/537.36" etag="AiWKmEMdbbn2g6zi1SrT" version="14.5.3" type="github">
  <diagram id="isXkQXGiMKi2WhRMr6Te" name="Page-1">
    <mxGraphModel dx="1038" dy="576" grid="1" gridSize="10" guides="1" tooltips="1" connect="1" arrows="1" fold="1" page="1" pageScale="1" pageWidth="827" pageHeight="1169" math="0" shadow="0">
      <root>
        <mxCell id="0" />
        <mxCell id="1" parent="0" />
        <mxCell id="zoC7GqsOm2stH8VcYx2M-1" value="" style="rounded=0;whiteSpace=wrap;html=1;" vertex="1" parent="1">
          <mxGeometry x="20" y="30" width="320" height="240" as="geometry" />
        </mxCell>
        <mxCell id="zoC7GqsOm2stH8VcYx2M-2" value="login / sign up" style="rounded=1;whiteSpace=wrap;html=1;" vertex="1" parent="1">
          <mxGeometry x="75" y="70" width="230" height="60" as="geometry" />
        </mxCell>
      </root>
    </mxGraphModel>
  </diagram>
</mxfile>
